<svg width="300" height="400" viewBox="0 0 300 400" fill="none" xmlns="http://www.w3.org/2000/svg">
<path fill-rule="evenodd" clip-rule="evenodd" d="M206 211H150L151.383 320H196.271C197.854 320 199.164 318.77 199.265 317.19L206 211Z" fill="#C96A40"/>
<path d="M94 211L103.436 317.265C103.574 318.813 104.87 320 106.424 320H151.383L150 211H94Z" fill="#B7623A"/>
<path fill-rule="evenodd" clip-rule="evenodd" d="M212 202C212 196.477 207.523 192 202 192H150V221H212V202Z" fill="#776565"/>
<path d="M98 192C92.4772 192 88 196.477 88 202V221H150V192H98Z" fill="#6B5B5C"/>
<path d="M144.394 161.546C139.61 159.148 135.772 159.851 130.697 161.546C123.521 163.943 117 175.273 117 175.273C117 175.273 125.623 173.578 130.697 175.273C137.874 177.67 136.829 189 144.394 189C155.092 189 153.963 166.341 144.394 161.546Z" fill="#596D0F"/>
<path d="M157.606 161.546C162.39 159.148 166.228 159.851 171.303 161.546C178.479 163.943 185 175.273 185 175.273C185 175.273 176.377 173.578 171.303 175.273C164.126 177.67 165.171 189 157.606 189C146.908 189 148.037 166.341 157.606 161.546Z" fill="#85962C"/>
<path d="M156.302 118.173C160.266 116.354 163.446 116.887 167.651 118.173C173.597 119.991 179 128.586 179 128.586C179 128.586 171.856 127.3 167.651 128.586C161.705 130.405 162.57 139 156.302 139C147.438 139 148.374 121.81 156.302 118.173Z" fill="#85962C"/>
<path d="M143.698 118.173C139.734 116.354 136.554 116.887 132.349 118.173C126.403 119.991 121 128.586 121 128.586C121 128.586 128.144 127.3 132.349 128.586C138.295 130.405 137.43 139 143.698 139C152.562 139 151.626 121.81 143.698 118.173Z" fill="#596D0F"/>
<path fill-rule="evenodd" clip-rule="evenodd" d="M152 86H150V192H152V86Z" fill="#85962C"/>
<path d="M148 86V192H150V86H148Z" fill="#596D0F"/>
<path d="M163 79.3382C167.566 78.5773 175.324 79.3382 175.324 79.3382C175.324 79.3382 176.845 83.2172 175.324 85.5C173.171 88.7284 169.457 90.5857 163 91.6618C158.434 92.4227 150.676 91.6618 150.676 91.6618C150.676 91.6618 149.155 87.7828 150.676 85.5C152.829 82.2716 156.543 80.4143 163 79.3382Z" fill="#85962C"/>
<path d="M137 79.3382C132.434 78.5773 124.676 79.3382 124.676 79.3382C124.676 79.3382 123.155 83.2172 124.676 85.5C126.829 88.7284 130.543 90.5857 137 91.6618C141.566 92.4227 149.324 91.6618 149.324 91.6618C149.324 91.6618 150.845 87.7828 149.324 85.5C147.171 82.2716 143.457 80.4143 137 79.3382Z" fill="#596D0F"/>
</svg>
