<svg width="300" height="400" viewBox="0 0 300 400" fill="none" xmlns="http://www.w3.org/2000/svg">
<path fill-rule="evenodd" clip-rule="evenodd" d="M206 211H150L151.383 320H196.271C197.854 320 199.164 318.77 199.265 317.19L206 211Z" fill="#C96A40"/>
<path d="M94 211L103.436 317.265C103.574 318.813 104.87 320 106.424 320H151.383L150 211H94Z" fill="#B7623A"/>
<path fill-rule="evenodd" clip-rule="evenodd" d="M212 202C212 196.477 207.523 192 202 192H150V221H212V202Z" fill="#776565"/>
<path d="M98 192C92.4772 192 88 196.477 88 202V221H150V192H98Z" fill="#6B5B5C"/>
<path d="M144.394 161.546C139.61 159.148 135.772 159.851 130.697 161.546C123.521 163.943 117 175.273 117 175.273C117 175.273 125.623 173.578 130.697 175.273C137.874 177.67 136.829 189 144.394 189C155.092 189 153.963 166.341 144.394 161.546Z" fill="#596D0F"/>
<path d="M157.606 161.546C162.39 159.148 166.228 159.851 171.303 161.546C178.479 163.943 185 175.273 185 175.273C185 175.273 176.377 173.578 171.303 175.273C164.126 177.67 165.171 189 157.606 189C146.908 189 148.037 166.341 157.606 161.546Z" fill="#85962C"/>
<path d="M143.698 118.173C139.734 116.354 136.554 116.887 132.349 118.173C126.403 119.991 121 128.586 121 128.586C121 128.586 128.144 127.3 132.349 128.586C138.295 130.405 137.43 139 143.698 139C152.562 139 151.626 121.81 143.698 118.173Z" fill="#596D0F"/>
<path fill-rule="evenodd" clip-rule="evenodd" d="M152 86H150V192H152V86Z" fill="#85962C"/>
<path d="M148 86V192H150V86H148Z" fill="#596D0F"/>
</svg>
